<?xml version="1.0" encoding="UTF-8" standalone="no"?>
<!-- Uploaded to: SVG Repo, www.svgrepo.com, Generator: SVG Repo Mixer Tools -->

<svg
   fill="#000000"
   width="800px"
   height="800px"
   viewBox="0 0 24 24"
   role="img"
   version="1.1"
   id="svg23"
   sodipodi:docname="atari-color-inkscape.svg"
   inkscape:version="1.2 (dc2aedaf03, 2022-05-15)"
   xmlns:inkscape="http://www.inkscape.org/namespaces/inkscape"
   xmlns:sodipodi="http://sodipodi.sourceforge.net/DTD/sodipodi-0.dtd"
   xmlns:xlink="http://www.w3.org/1999/xlink"
   xmlns="http://www.w3.org/2000/svg"
   xmlns:svg="http://www.w3.org/2000/svg">
  <defs
     id="defs27">
    <linearGradient
       inkscape:collect="always"
       id="linearGradient1030">
      <stop
         style="stop-color:#ff0000;stop-opacity:1;"
         offset="0"
         id="stop1026" />
      <stop
         style="stop-color:#ffff00;stop-opacity:1;"
         offset="0.15643549"
         id="stop2486" />
      <stop
         style="stop-color:#00ff00;stop-opacity:1;"
         offset="0.32728708"
         id="stop2488" />
      <stop
         style="stop-color:#00ffff;stop-opacity:1;"
         offset="0.49960569"
         id="stop3218" />
      <stop
         style="stop-color:#0000ff;stop-opacity:1;"
         offset="0.66620666"
         id="stop3220" />
      <stop
         style="stop-color:#ff00ff;stop-opacity:1;"
         offset="0.8331033"
         id="stop3222" />
      <stop
         style="stop-color:#ff0000;stop-opacity:1;"
         offset="1"
         id="stop1028" />
    </linearGradient>
    <linearGradient
       inkscape:collect="always"
       xlink:href="#linearGradient1030"
       id="linearGradient1032"
       x1="11.585313"
       y1="2.3585312"
       x2="11.585313"
       y2="21.693304"
       gradientUnits="userSpaceOnUse" />
  </defs>
  <sodipodi:namedview
     id="namedview25"
     pagecolor="#505050"
     bordercolor="#eeeeee"
     borderopacity="1"
     inkscape:showpageshadow="0"
     inkscape:pageopacity="0"
     inkscape:pagecheckerboard="0"
     inkscape:deskcolor="#505050"
     showgrid="false"
     inkscape:zoom="1.1575"
     inkscape:cx="241.46868"
     inkscape:cy="400"
     inkscape:window-width="1920"
     inkscape:window-height="1129"
     inkscape:window-x="1912"
     inkscape:window-y="-7"
     inkscape:window-maximized="1"
     inkscape:current-layer="svg23" />
  <path
     d="m 0,21.653 c 0,0 3.154,-0.355 5.612,-2.384 2.339,-1.93 3.185,-3.592 3.77,-5.476 0.584,-1.885 0.671,-6.419 0.671,-7.764 V 2.346 H 8.598 V 3.711 C 8.574,5.752 8.398,9.629 7.463,12.155 5.203,18.242 0,18.775 0,18.775 Z m 24,0 c 0,0 -3.154,-0.355 -5.61,-2.384 -2.342,-1.93 -3.187,-3.592 -3.772,-5.476 C 14.035,11.908 13.947,7.374 13.947,6.029 V 2.346 H 15.4 l 10e-4,1.365 c 0.024,2.041 0.202,5.918 1.138,8.444 2.258,6.087 7.46,6.62 7.46,6.62 z M 10.659,2.348 h 2.685 V 21.654 H 10.66 Z"
     id="path21"
     style="fill:url(#linearGradient1032);fill-opacity:1;stroke-width:0.99999;stroke-dasharray:none" />
</svg>
