<?xml version="1.0" encoding="UTF-8" standalone="no"?>
<svg xmlns="http://www.w3.org/2000/svg" xmlns:svg="http://www.w3.org/2000/svg"
   width="24" height="24" viewBox="0 0 24 24">
  <defs>
    <linearGradient id="linearGradient1032"
       x1="11.585313"
       y1="2.3585312"
       x2="11.585313"
       y2="21.693304"
       gradientUnits="userSpaceOnUse">
      <stop style="stop-color:#ff0000;stop-opacity:1;" offset="0" />
      <stop style="stop-color:#ffff00;stop-opacity:1;" offset="0.15643549" />
      <stop style="stop-color:#00ffF00;stop-opacity:1;" offset="0.32728708" />
      <stop style="stop-color:#00ffff;stop-opacity:1;" offset="0.49960569" />
      <stop style="stop-color:#0000ff;stop-opacity:1;" offset="0.66620666" />
      <stop style="stop-color:#ff00ff;stop-opacity:1;" offset="0.8331033" />
      <stop style="stop-color:#ff0000;stop-opacity:1;" offset="1" />
    </linearGradient>
  </defs>
  <path
     d="m 0,21.653 c 0,0 3.154,-0.355 5.612,-2.384 2.339,-1.93 3.185,-3.592 3.77,-5.476 0.584,-1.885 0.671,-6.419 0.671,-7.764 V 2.346 H 8.598 V 3.711 C 8.574,5.752 8.398,9.629 7.463,12.155 5.203,18.242 0,18.775 0,18.775 Z m 24,0 c 0,0 -3.154,-0.355 -5.61,-2.384 -2.342,-1.93 -3.187,-3.592 -3.772,-5.476 C 14.035,11.908 13.947,7.374 13.947,6.029 V 2.346 H 15.4 l 10e-4,1.365 c 0.024,2.041 0.202,5.918 1.138,8.444 2.258,6.087 7.46,6.62 7.46,6.62 z M 10.659,2.348 h 2.685 V 21.654 H 10.66 Z"
     style="fill:url(#linearGradient1032);fill-opacity:1;stroke-width:0.99999;stroke-dasharray:none" />
</svg>
